<?xml version="1.0" encoding="utf-8"?>
<svg id="logo" xmlns="http://www.w3.org/2000/svg" width="104" height="79.262" viewBox="0 0 104 79.262">
  <g id="Groupe_3" data-name="Groupe 3" transform="translate(0 10.526)">
    <g id="Groupe_1" data-name="Groupe 1">
      <path id="Tracé_1" data-name="Tracé 1" d="M167.582,170.711l9.954-26.959,4.818-1.469,10.179,28.428h-6.867l-3.149-9.41h-9.474l-3.248,9.41Zm14.407-10.879-3.927-11.712-.081-1.112-4.413,12.824Z" transform="translate(-167.582 -142.283)" fill="#161615"/>
      <path id="Tracé_2" data-name="Tracé 2" d="M319.963,173.086V145.251H326.2v27.835Z" transform="translate(-288.913 -144.658)" fill="#161615"/>
      <path id="Tracé_3" data-name="Tracé 3" d="M388.515,173.086V145.251h7.221l8.339,21.162,7.99-21.162h6.614v27.835h-6.155V150.573l.283-2.382-9.444,24.894h-3.421L391.106,150.1l-.647-2.382v25.37Z" transform="translate(-343.496 -144.658)" fill="#161615"/>
      <path id="Tracé_4" data-name="Tracé 4" d="M574.905,173.086V145.253l19.637,0,.047,1.551-13.45.011v10.868H588.9v1.588H581.14V171.5H594.6l-.142,1.588Z" transform="translate(-491.906 -144.658)" fill="#161615"/>
    </g>
    <g id="Groupe_2" data-name="Groupe 2" transform="translate(0.05 34.477)">
      <path id="Tracé_5" data-name="Tracé 5" d="M167.826,339.425V317.4l9.174.018c3.74,0,6.873,1.818,6.873,5.58,0,4.2-4.028,5.768-8.439,6.834h-2.685v9.592Zm6.809-10.846c2.27,0,4-2.038,4-5.2,0-2.884-1.343-4.921-3.8-4.921l-2.078.251v9.874Z" transform="translate(-167.826 -316.887)" fill="#161615"/>
      <path id="Tracé_6" data-name="Tracé 6" d="M260.663,326.829c0-6.8,3.58-10.439,11.8-12.006,6.713,0,11.092,4.608,11.092,11.066,0,6.8-3.58,10.439-11.8,12.006C265.042,337.895,260.663,333.287,260.663,326.829Zm17.422.188c0-5.674-2.206-10.752-6.489-10.752-3.8,0-5.466,4.295-5.466,9.436,0,5.705,2.238,10.752,6.521,10.752C276.454,336.453,278.085,332.158,278.085,327.017Z" transform="translate(-241.746 -314.823)" fill="#161615"/>
      <path id="Tracé_7" data-name="Tracé 7" d="M393.06,331.777V317.4h4.955V332c0,3.605,1.854,5.987,5.21,5.987,3.165,0,5.083-2.382,5.083-6.019V317.4h1.886v14.437c0,3.887-1.534,6.771-7.864,8.119C395.809,339.959,393.06,336.667,393.06,331.777Z" transform="translate(-347.165 -316.887)" fill="#161615"/>
      <path id="Tracé_8" data-name="Tracé 8" d="M506.851,339.425V317.4h4.923v20.676h10.207l-.106,1.348Z" transform="translate(-437.769 -316.887)" fill="#161615"/>
      <path id="Tracé_9" data-name="Tracé 9" d="M583.346,339.425V330.8l-7.578-13.4h5.621l6.3,11.653,6.042-11.653h1.646l-7.113,13.309v8.715Z" transform="translate(-492.643 -316.887)" fill="#161615"/>
    </g>
  </g>
  <g id="Groupe_4" data-name="Groupe 4" transform="translate(0.203 74)">
    <path id="Tracé_10" data-name="Tracé 10" d="M170.437,460.537q.165,0,.356,0c.127,0,.253.01.377.021a3.015,3.015,0,0,1,.348.053.89.89,0,0,1,.276.106,1.323,1.323,0,0,1,.428.409,1.119,1.119,0,0,1,.176.641,1.209,1.209,0,0,1-.2.694,1.161,1.161,0,0,1-.564.433v.014a1.186,1.186,0,0,1,.726.423,1.249,1.249,0,0,1,.251.789,1.475,1.475,0,0,1-.1.536,1.339,1.339,0,0,1-.3.462,1.489,1.489,0,0,1-.489.324,1.706,1.706,0,0,1-.672.123h-2.478v-5.03Zm.187,2.163a1.366,1.366,0,0,0,.837-.2.72.72,0,0,0,.255-.6.871.871,0,0,0-.086-.423.606.606,0,0,0-.237-.24.947.947,0,0,0-.348-.109,3.4,3.4,0,0,0-.42-.025h-1.365v1.6Zm.345,2.3a.993.993,0,0,0,.708-.24.864.864,0,0,0,.255-.662.811.811,0,0,0-.093-.409.715.715,0,0,0-.248-.257,1.051,1.051,0,0,0-.356-.134,2.2,2.2,0,0,0-.417-.039h-1.559V465Z" transform="translate(-168.576 -460.417)" fill="#161615"/>
    <path id="Tracé_11" data-name="Tracé 11" d="M194.748,461.583a2.481,2.481,0,0,1,.463-.842,2.258,2.258,0,0,1,.769-.585,2.735,2.735,0,0,1,2.141,0,2.264,2.264,0,0,1,.769.585,2.481,2.481,0,0,1,.463.842,3.244,3.244,0,0,1,0,1.979,2.479,2.479,0,0,1-.463.842,2.22,2.22,0,0,1-.769.581,2.774,2.774,0,0,1-2.141,0,2.215,2.215,0,0,1-.769-.581,2.48,2.48,0,0,1-.463-.842,3.248,3.248,0,0,1,0-1.979Zm.629,1.74a2.021,2.021,0,0,0,.316.666,1.61,1.61,0,0,0,.553.476,1.891,1.891,0,0,0,1.609,0,1.61,1.61,0,0,0,.553-.476,2.025,2.025,0,0,0,.316-.666,2.852,2.852,0,0,0,0-1.5,2.025,2.025,0,0,0-.316-.666,1.61,1.61,0,0,0-.553-.476,1.891,1.891,0,0,0-1.609,0,1.61,1.61,0,0,0-.553.476,2.021,2.021,0,0,0-.316.666,2.852,2.852,0,0,0,0,1.5Z" transform="translate(-189.292 -459.938)" fill="#161615"/>
    <path id="Tracé_12" data-name="Tracé 12" d="M229.534,465.2a2.128,2.128,0,0,1-1.494.483,2.357,2.357,0,0,1-1.548-.461,1.8,1.8,0,0,1-.557-1.469v-3.212h.682v3.212a1.351,1.351,0,0,0,.366,1.025,1.474,1.474,0,0,0,1.056.349,1.332,1.332,0,0,0,.995-.349,1.409,1.409,0,0,0,.341-1.025v-3.212h.683v3.212A1.872,1.872,0,0,1,229.534,465.2Z" transform="translate(-214.247 -460.417)" fill="#161615"/>
    <path id="Tracé_13" data-name="Tracé 13" d="M255.49,460.537V465h2.716v.563h-3.4v-5.03Z" transform="translate(-237.237 -460.417)" fill="#161615"/>
    <path id="Tracé_14" data-name="Tracé 14" d="M277.478,460.537l2,5.03h-.754l-.56-1.515H276l-.575,1.515h-.7l2-5.03Zm.474,2.952-.855-2.346h-.014l-.869,2.346Z" transform="translate(-253.097 -460.417)" fill="#161615"/>
    <path id="Tracé_15" data-name="Tracé 15" d="M304.5,460.537l2.7,4.079h.014v-4.079h.647v5.03h-.747l-2.68-4.037h-.014v4.037h-.647v-5.03Z" transform="translate(-276.228 -460.417)" fill="#161615"/>
    <path id="Tracé_16" data-name="Tracé 16" d="M334.65,465.028a2.466,2.466,0,0,1-.9.173,2.436,2.436,0,0,1-1.027-.208,2.321,2.321,0,0,1-.769-.56,2.437,2.437,0,0,1-.481-.81,2.777,2.777,0,0,1-.165-.951,3.5,3.5,0,0,1,.154-1.046,2.56,2.56,0,0,1,.46-.87,2.228,2.228,0,0,1,.761-.6,2.411,2.411,0,0,1,1.067-.222,3.153,3.153,0,0,1,.787.1,2.01,2.01,0,0,1,.661.3,1.8,1.8,0,0,1,.488.518,2.01,2.01,0,0,1,.269.757h-.682a1.3,1.3,0,0,0-.187-.5,1.192,1.192,0,0,0-.338-.342,1.5,1.5,0,0,0-.456-.2,2.131,2.131,0,0,0-.542-.067,1.641,1.641,0,0,0-.8.183,1.6,1.6,0,0,0-.546.483,2.086,2.086,0,0,0-.312.683,3.077,3.077,0,0,0-.1.785,2.492,2.492,0,0,0,.115.757,1.962,1.962,0,0,0,.338.641,1.61,1.61,0,0,0,1.307.609,1.865,1.865,0,0,0,.711-.127,1.494,1.494,0,0,0,.521-.349,1.461,1.461,0,0,0,.32-.521A1.68,1.68,0,0,0,335.4,463H333.76v-.564h2.248v2.649h-.431l-.18-.627A1.7,1.7,0,0,1,334.65,465.028Z" transform="translate(-298.15 -459.938)" fill="#161615"/>
    <path id="Tracé_17" data-name="Tracé 17" d="M366.122,460.537v.563h-2.859v1.6h2.665v.564h-2.665V465h2.881v.563h-3.563v-5.03Z" transform="translate(-323.049 -460.417)" fill="#161615"/>
    <path id="Tracé_18" data-name="Tracé 18" d="M389.814,460.537a1.712,1.712,0,0,1,1.146.352,1.2,1.2,0,0,1,.413.965,1.5,1.5,0,0,1-.212.8,1.089,1.089,0,0,1-.679.472v.014a.931.931,0,0,1,.363.141.779.779,0,0,1,.223.236,1.055,1.055,0,0,1,.122.306,3.211,3.211,0,0,1,.061.352q.014.183.022.373a3.155,3.155,0,0,0,.036.373,2.231,2.231,0,0,0,.083.349.85.85,0,0,0,.162.292h-.761a.414.414,0,0,1-.1-.211,2.09,2.09,0,0,1-.032-.3q-.007-.165-.014-.356a2.435,2.435,0,0,0-.043-.373q-.029-.183-.072-.349a.816.816,0,0,0-.137-.289.672.672,0,0,0-.244-.2.924.924,0,0,0-.4-.074h-1.667v2.149H387.4v-5.03Zm.144,2.283a1,1,0,0,0,.377-.137.755.755,0,0,0,.259-.275.909.909,0,0,0,.1-.447.8.8,0,0,0-.912-.859h-1.7v1.754H389.5A2.815,2.815,0,0,0,389.957,462.82Z" transform="translate(-342.811 -460.417)" fill="#161615"/>
    <path id="Tracé_19" data-name="Tracé 19" d="M429.667,460.537a2.588,2.588,0,0,1,1.825.592,2.342,2.342,0,0,1,.639,1.8,4,4,0,0,1-.144,1.124,2.087,2.087,0,0,1-.445.824,1.929,1.929,0,0,1-.769.511,3.133,3.133,0,0,1-1.106.176h-1.76v-5.03Zm.057,4.466c.076,0,.172-.006.287-.018a1.636,1.636,0,0,0,.366-.085,1.684,1.684,0,0,0,.384-.194,1.285,1.285,0,0,0,.341-.345,1.911,1.911,0,0,0,.248-.546,2.822,2.822,0,0,0,.1-.792,3.306,3.306,0,0,0-.09-.807,1.536,1.536,0,0,0-.294-.606,1.293,1.293,0,0,0-.528-.38,2.139,2.139,0,0,0-.8-.13H428.59V465Z" transform="translate(-375.064 -460.417)" fill="#161615"/>
    <path id="Tracé_20" data-name="Tracé 20" d="M459.546,460.537v.563h-2.859v1.6h2.665v.564h-2.665V465h2.881v.563h-3.563v-5.03Z" transform="translate(-397.437 -460.417)" fill="#161615"/>
    <path id="Tracé_21" data-name="Tracé 21" d="M483.073,460.537a1.611,1.611,0,0,1,1.174.391,1.709,1.709,0,0,1,0,2.194,1.582,1.582,0,0,1-1.174.387h-1.566v2.057h-.682v-5.03Zm-.23,2.409a1.236,1.236,0,0,0,.851-.233.876.876,0,0,0,.269-.69.865.865,0,0,0-.269-.687,1.273,1.273,0,0,0-.851-.236h-1.336v1.846Z" transform="translate(-417.199 -460.417)" fill="#161615"/>
    <path id="Tracé_22" data-name="Tracé 22" d="M510.405,465.2a2.128,2.128,0,0,1-1.494.483,2.357,2.357,0,0,1-1.548-.461,1.8,1.8,0,0,1-.557-1.469v-3.212h.683v3.212a1.351,1.351,0,0,0,.366,1.025,1.474,1.474,0,0,0,1.056.349,1.332,1.332,0,0,0,1-.349,1.409,1.409,0,0,0,.341-1.025v-3.212h.683v3.212A1.873,1.873,0,0,1,510.405,465.2Z" transform="translate(-437.886 -460.417)" fill="#161615"/>
    <path id="Tracé_23" data-name="Tracé 23" d="M536.5,460.537v5.03h-.682v-5.03Z" transform="translate(-460.989 -460.417)" fill="#161615"/>
    <path id="Tracé_24" data-name="Tracé 24" d="M549.506,460.745a1.469,1.469,0,0,0-.873-.243,2.127,2.127,0,0,0-.424.042,1.135,1.135,0,0,0-.37.141.745.745,0,0,0-.259.264.8.8,0,0,0-.1.412.518.518,0,0,0,.14.377,1.04,1.04,0,0,0,.374.236,3.163,3.163,0,0,0,.528.152q.294.06.6.13t.6.166a2,2,0,0,1,.528.257,1.319,1.319,0,0,1,.33,1.715,1.492,1.492,0,0,1-.471.465,2.066,2.066,0,0,1-.643.261,3.171,3.171,0,0,1-.708.081,3.06,3.06,0,0,1-.815-.106,2.031,2.031,0,0,1-.675-.32,1.529,1.529,0,0,1-.46-.55,1.741,1.741,0,0,1-.169-.793h.647a1.116,1.116,0,0,0,.126.546,1.128,1.128,0,0,0,.33.377,1.413,1.413,0,0,0,.478.218,2.234,2.234,0,0,0,.56.07,2.6,2.6,0,0,0,.463-.042,1.378,1.378,0,0,0,.42-.144.83.83,0,0,0,.3-.278.81.81,0,0,0,.115-.451.623.623,0,0,0-.14-.423,1.03,1.03,0,0,0-.373-.264,2.781,2.781,0,0,0-.528-.166l-.6-.13q-.305-.067-.6-.155a2.185,2.185,0,0,1-.528-.232,1.127,1.127,0,0,1-.374-.373,1.084,1.084,0,0,1-.14-.574,1.312,1.312,0,0,1,.158-.659,1.363,1.363,0,0,1,.42-.458,1.906,1.906,0,0,1,.6-.268,2.678,2.678,0,0,1,.686-.088,2.8,2.8,0,0,1,.733.092,1.675,1.675,0,0,1,.593.289,1.4,1.4,0,0,1,.4.5,1.749,1.749,0,0,1,.161.715H549.9A1.042,1.042,0,0,0,549.506,460.745Z" transform="translate(-469.606 -459.938)" fill="#161615"/>
    <path id="Tracé_25" data-name="Tracé 25" d="M588.931,465.708V462.13h-1.322v-.479a3.186,3.186,0,0,0,.5-.039,1.39,1.39,0,0,0,.442-.144,1,1,0,0,0,.334-.289,1.088,1.088,0,0,0,.187-.465h.467v4.995Z" transform="translate(-502.224 -460.559)" fill="#161615"/>
    <path id="Tracé_26" data-name="Tracé 26" d="M609.641,465.067a1.031,1.031,0,0,0,.632.2.914.914,0,0,0,.841-.476,3.129,3.129,0,0,0,.309-1.455l-.014-.014a1.294,1.294,0,0,1-.489.5,1.332,1.332,0,0,1-.69.187,1.811,1.811,0,0,1-.69-.123,1.376,1.376,0,0,1-.815-.87,2.11,2.11,0,0,1-.1-.676,1.727,1.727,0,0,1,.122-.659,1.483,1.483,0,0,1,.345-.514,1.578,1.578,0,0,1,.532-.335,1.85,1.85,0,0,1,.675-.12,2.056,2.056,0,0,1,.675.109,1.3,1.3,0,0,1,.553.377,1.938,1.938,0,0,1,.377.729,4.119,4.119,0,0,1,.14,1.173,3.872,3.872,0,0,1-.42,1.99,1.457,1.457,0,0,1-1.347.694,1.727,1.727,0,0,1-1.063-.317,1.278,1.278,0,0,1-.481-.965h.61A.758.758,0,0,0,609.641,465.067Zm1.606-3.121a1.111,1.111,0,0,0-.2-.363.95.95,0,0,0-.327-.25,1.054,1.054,0,0,0-.453-.091,1,1,0,0,0-.463.1.858.858,0,0,0-.309.264,1.113,1.113,0,0,0-.172.377,1.79,1.79,0,0,0-.054.444,1.059,1.059,0,0,0,.075.395,1.119,1.119,0,0,0,.208.338,1.007,1.007,0,0,0,.316.236.923.923,0,0,0,.406.088,1.029,1.029,0,0,0,.431-.088.99.99,0,0,0,.331-.24,1.051,1.051,0,0,0,.208-.352,1.239,1.239,0,0,0,.072-.419A1.376,1.376,0,0,0,611.247,461.947Z" transform="translate(-518.955 -460.559)" fill="#161615"/>
    <path id="Tracé_27" data-name="Tracé 27" d="M634.637,462.539a7.844,7.844,0,0,0-.6,1.1,7.929,7.929,0,0,0-.428,1.2,6.162,6.162,0,0,0-.2,1.2h-.682a6.114,6.114,0,0,1,.212-1.236,7.051,7.051,0,0,1,.435-1.155,7.234,7.234,0,0,1,.614-1.046,7.64,7.64,0,0,1,.751-.909h-2.672v-.564h3.3v.514A5.135,5.135,0,0,0,634.637,462.539Z" transform="translate(-537.622 -460.897)" fill="#161615"/>
    <path id="Tracé_28" data-name="Tracé 28" d="M657.668,464.011v.528h-.69v1.17H656.4v-1.17H654.17v-.578l2.32-3.247h.488v3.3Zm-1.264-2.445h-.015l-1.7,2.445h1.71Z" transform="translate(-555.222 -460.559)" fill="#161615"/>
  </g>
  <path id="Tracé_29" data-name="Tracé 29" d="M587.654,96.419a19.977,19.977,0,0,1-3.888-.383l-1.161-.23.948-.872a18.852,18.852,0,0,1,11.874-5.258,20.6,20.6,0,0,1,6.152.388.595.595,0,0,1,.217,1.057.6.6,0,0,1-.049.049A22.667,22.667,0,0,1,587.654,96.419ZM585.2,95.057c7.063.923,12.689-2.511,14.81-4.056C597.276,90.635,590.619,90.356,585.2,95.057Z" transform="translate(-498.037 -89.607)" fill="#96342e"/>
</svg>
